<svg xmlns="http://www.w3.org/2000/svg" xmlns:svg="http://www.w3.org/2000/svg" id="Vector_Icons" width="16" height="16" x="0" y="0" version="1.1" viewBox="0 0 16 16" xml:space="preserve" style="enable-background:new 0 0 16 16"><style id="style9" type="text/css">.st6{fill:#cae3ff}.st17{fill:#3883ce}.st18{fill:none;stroke:#039;stroke-width:1.375;stroke-miterlimit:10}</style><ellipse id="circle19" cx="6.803" cy="6.889" class="st6" rx="6.137" ry="6.068" style="fill:#c1ddf1;fill-opacity:1;stroke:#000;stroke-width:1.01708;stroke-opacity:1"/><ellipse id="circle19-5" cx="6.759" cy="6.787" class="st6" rx="1.397" ry="1.328" style="fill:#000;fill-opacity:1;stroke:#000;stroke-width:.227052;stroke-opacity:1"/><path id="path21" d="m 6.8032287,1.8192652 c 2.9663162,0 5.3796083,2.2744318 5.3796083,5.0700662 0,2.7956345 -2.4132921,5.0700656 -5.3796083,5.0700656 -2.9663161,0 -5.3796085,-2.2744311 -5.3796085,-5.0700656 0,-2.7956344 2.4132924,-5.0700662 5.3796085,-5.0700662 m 0,-1.01401319 c -3.5656045,0 -6.45553013,2.72363949 -6.45553013,6.08407939 0,3.3604396 2.88992563,6.0840796 6.45553013,6.0840796 3.5656043,0 6.4555293,-2.72364 6.4555293,-6.0840796 0,-3.3604399 -2.889925,-6.08407939 -6.4555293,-6.08407939 z" class="st17" style="fill:#000;stroke-width:1.04452"/><line id="line25-0" x1="11.24" x2="14.917" y1="11.341" y2="14.941" class="st18" style="fill:#c1ddf1;fill-opacity:1;stroke:#000;stroke-width:1.846;stroke-linecap:round;stroke-miterlimit:9.8;stroke-dasharray:none;stroke-opacity:1;paint-order:markers fill stroke"/></svg>