<svg xmlns="http://www.w3.org/2000/svg" xmlns:xlink="http://www.w3.org/1999/xlink" width="500" height="340" version="1.1"><style>text{font:30px &apos;DejaVu Sans&apos;,Verdana,Arial,sans-serif;fill:#d91c1b;text-anchor:middle;dominant-baseline:middle}</style><path fill="none" stroke="#000" d="M 75,290 L 300,50 L 450,210 M 225,130 L 300,210 M 150,210 L 225,290"/><circle id="circleA" cx="300" cy="50" r="30" fill="#e6e6ff" stroke="#000" stroke-width="1"/><text x="300" y="50">A</text><use x="-75" y="80" xlink:href="#circleA"/><text x="225" y="130">B</text><use x="75" y="80" xlink:href="#circleA"/><text x="375" y="130">C</text><use x="-150" y="160" xlink:href="#circleA"/><text x="150" y="210">D</text><use x="0" y="160" xlink:href="#circleA"/><text x="300" y="210">E</text><use x="150" y="160" xlink:href="#circleA"/><text x="450" y="210">F</text><use x="-225" y="240" xlink:href="#circleA"/><text x="75" y="290">G</text><use x="-75" y="240" xlink:href="#circleA"/><text x="225" y="290">H</text><path fill="none" stroke="#00f" stroke-width="4" d="M 490,210 C 490,180 460,125 430,90 400,55 360,10 300,10 240,10 148,123 190,165 c 41,42 58,-11 110,-10 52,1 78,62 115,85 37,22 75,17 75,-30 z"/><path fill="none" stroke="#0f0" stroke-width="4" d="M 340,235 C 367,188 276,75 225,75 c -51,0 -72,23 -92,50 -20,27 -41,91 -18,120 22,30 70,-15 110,-15 40,0 87,52 115,5 z"/><path fill="none" stroke="red" stroke-width="4" d="m 225,330 c 40,0 50,-20 40,-55 -10,-30 -45,-70 -85,-98 -40,-30 -100,35 -125,63 -27,25 -27,90 15,90 42,0 47,-20 80,-20 32,0 34,20 75,20 z"/></svg>