<svg xmlns="http://www.w3.org/2000/svg" width="140" height="170" version="1.1"><style>text{font:15px &apos;DejaVu Serif&apos;,serif;fill:#000}text.centered{text-anchor:middle;dominant-baseline:middle}tspan{font-style:italic;font-size:smaller}ellipse,path{stroke:#000;stroke-width:1}path{fill:none}path.dashed{stroke-dasharray:1 3 1 3 7 3}</style><path d="M 75 25 L 40 115 M 75 25 L 90 85 L 105 145"/><ellipse cx="75" cy="25" fill="#906" rx="18" ry="14"/><text x="75" y="25" class="centered" style="fill:#fff">F</text><text x="54" y="36" text-anchor="end">1</text><ellipse cx="90" cy="85" fill="#f52" rx="18" ry="14"/><text x="90" y="85" class="centered">D<tspan>i</tspan></text><text x="107" y="74">2</text><text x="70" y="85" dominant-baseline="middle" text-anchor="end">5</text><ellipse cx="105" cy="145" fill="#0cf" rx="18" ry="14"/><text x="105" y="145" class="centered">D<tspan>ii</tspan></text><text x="85" y="160" text-anchor="end">3</text><ellipse cx="40" cy="115" fill="#f99" rx="18" ry="14"/><text x="40" y="115" class="centered">D<tspan>iii</tspan></text><text x="20" y="110" text-anchor="end">4</text><path d="M 75,5 C 40,5 35,25 35,50 S 5,85 5,115 S 40,165 75,165 S 130,175 135,155 S 125,120 125,105 S 140,75 130,55 S 130,5 75,5" class="dashed"/></svg>