<svg xmlns="http://www.w3.org/2000/svg" xmlns:xlink="http://www.w3.org/1999/xlink" width="458" height="165" version="1.1"><style>line,path,rect{stroke-width:1px}path,rect{fill:none;stroke:#000}marker path{fill:#000}g#quick rect{fill:#c0dcc0}line{stroke:red}text{font-family:Arial,&apos;DejaVu Sans&apos;,sans-serif;font-size:13px;text-anchor:middle;dominant-baseline:middle}text.left{text-anchor:start;dominant-baseline:auto}text.bold{font-weight:700}text.top{dominant-baseline:hanging}</style><defs><marker id="arrow" markerHeight="7" markerWidth="7" orient="auto" refX="10" refY="5" viewBox="0 0 10 10"><path d="M 0 0 L 10 5 L 0 10"/></marker></defs><text x="1" y="16" class="left bold">Before Remove</text><g id="the"><rect width="20" height="20" x="3.5" y="25.5"/><text x="13.5" y="35.5">T</text><rect width="20" height="20" x="27.5" y="25.5"/><text x="37.5" y="35.5">h</text><rect width="20" height="20" x="51.5" y="25.5"/><text x="61.5" y="35.5">e</text><rect width="20" height="20" x="75.5" y="25.5"/></g><g id="quick"><rect width="20" height="20" x="99.5" y="25.5"/><text x="109.5" y="35.5">q</text><rect width="20" height="20" x="123.5" y="25.5"/><text x="133.5" y="35.5">u</text><rect width="20" height="20" x="147.5" y="25.5"/><text x="157.5" y="35.5">i</text><rect width="20" height="20" x="171.5" y="25.5"/><text x="181.5" y="35.5">c</text><rect width="20" height="20" x="195.5" y="25.5"/><text x="205.5" y="35.5">k</text><rect width="20" height="20" x="219.5" y="25.5"/></g><g id="brownFox"><rect width="20" height="20" x="243.5" y="25.5"/><text x="253.5" y="35.5">b</text><rect width="20" height="20" x="267.5" y="25.5"/><text x="277.5" y="35.5">r</text><rect width="20" height="20" x="291.5" y="25.5"/><text x="301.5" y="35.5">o</text><rect width="20" height="20" x="315.5" y="25.5"/><text x="325.5" y="35.5">w</text><rect width="20" height="20" x="339.5" y="25.5"/><text x="349.5" y="35.5">n</text><rect width="20" height="20" x="363.5" y="25.5"/><rect width="20" height="20" x="387.5" y="25.5"/><text x="397.5" y="35.5">f</text><rect width="20" height="20" x="411.5" y="25.5"/><text x="421.5" y="35.5">o</text><rect width="20" height="20" x="435.5" y="25.5"/><text x="445.5" y="35.5">x</text></g><line x1="97.5" x2="97.5" y1="22" y2="55"/><text x="97" y="57" class="top">4</text><line x1="241.5" x2="241.5" y1="22" y2="55"/><text x="241" y="57" class="top">10</text><text x="1" y="110" class="left bold">After Remove</text><use x="0" y="94" xlink:href="#the"/><use x="-144" y="94" xlink:href="#brownFox"/><path marker-end="url(#arrow)" d="M 97.5,71 L 97.5,114"/><path marker-end="url(#arrow)" d="M 241,71 L 99,114"/><line x1="97.5" x2="97.5" y1="116" y2="149"/><text x="97" y="151" class="top">4</text></svg>