<svg xmlns="http://www.w3.org/2000/svg" xmlns:xlink="http://www.w3.org/1999/xlink" width="850" height="600" version="1.1"><style>text{font:20px &apos;DejaVu Sans&apos;,Verdana,Arial,sans-serif;fill:#000}text.centered{text-anchor:middle;dominant-baseline:middle}</style><defs><g id="window"><rect id="w1" width="100" height="60" x="10" y="10" fill="none" stroke="red" stroke-width="5"/><text id="t1" x="60" y="40" class="centered">Window</text></g><g id="frame"><rect id="w2" width="100" height="60" x="10" y="10" fill="none" stroke="red" stroke-width="5"/><text id="t2" x="60" y="40" class="centered">Frame</text></g><g id="dialog"><rect id="w1" width="100" height="60" x="10" y="10" fill="none" stroke="red" stroke-width="5"/><text id="t1" x="60" y="40" class="centered">Dialog</text></g><g id="jframe"><rect id="w1" width="100" height="60" x="10" y="10" fill="none" stroke="#00f" stroke-width="5"/><text id="t1" x="60" y="40" class="centered">JFrame</text></g><g id="jdialog"><rect id="w1" width="100" height="60" x="10" y="10" fill="none" stroke="#00f" stroke-width="5"/><text id="t1" x="60" y="40" class="centered">JDialog</text></g><g id="jwindow"><rect id="w1" width="100" height="60" x="10" y="10" fill="none" stroke="#00f" stroke-width="5"/><text id="t1" x="60" y="40" class="centered">JWindow</text></g><g id="jinternalframe"><rect id="w1" width="160" height="60" x="10" y="10" fill="none" stroke="#0f0" stroke-width="2"/><text id="t1" x="90" y="40" class="centered">JInternalFrame</text></g><g id="jrootpane"><rect id="w1" width="120" height="60" x="10" y="10" fill="none" stroke="#0f0" stroke-width="2"/><text id="t1" x="70" y="40" class="centered">JRootPane</text></g></defs><use x="300" y="10" xlink:href="#window"/><use x="300" y="300" xlink:href="#jwindow"/><use x="10" y="150" xlink:href="#frame"/><use x="10" y="300" xlink:href="#jframe"/><use x="150" y="150" xlink:href="#dialog"/><use x="150" y="300" xlink:href="#jdialog"/><use x="450" y="300" xlink:href="#jinternalframe"/><use x="270" y="450" xlink:href="#jrootpane"/><line x1="10" x2="640" y1="260" y2="260" stroke="#000" stroke-width="2"/><line x1="10" x2="640" y1="410" y2="410" stroke="#000" stroke-width="5"/><line x1="70" x2="360" y1="120" y2="120" stroke="#000" stroke-width="2"/><line x1="70" x2="70" y1="120" y2="160" stroke="#000" stroke-width="2"/><line x1="210" x2="210" y1="120" y2="160" stroke="#000" stroke-width="2"/><line x1="70" x2="70" y1="220" y2="310" stroke="#000" stroke-width="2"/><line x1="210" x2="210" y1="220" y2="310" stroke="#000" stroke-width="2"/><line x1="360" x2="360" y1="80" y2="310" stroke="#000" stroke-width="2"/><line x1="340" x2="340" y1="410" y2="460" stroke="#000" stroke-width="2"/><text x="650" y="150">AWT classes</text><text x="650" y="300">Swing classes</text><text x="650" y="330">implementing the</text><text x="650" y="360">RootPaneContainer</text><text x="650" y="390">interface</text></svg>